# xmcd CD database file
#
# Track frame offsets:
#	150
#	9797
#	21815
#	31368
#	43367
#	55801
#	67684
#	81728
#	93052
#	103613
#	120006
#	131419
#	145304
#
# Disc length: 2169 seconds
#
# Revision: 0
# Processed by: cddbd v1.5.2PL0 Copyright (c) Steve Scherf et al.
# Submitted via: CDex 1.70beta2
#
DISCID=9c08770d
DTITLE=Short, Cliffy - Cdn. - ON - Just Plain Country
DYEAR=1900
DGENRE=Country
TTITLE0=All of A Sudden
TTITLE1=The Next Voice You Hear
TTITLE2=Poor Man Riches
TTITLE3=More and More
TTITLE4=You Only Want Me When You're Lonely
TTITLE5=Walking the Dog
TTITLE6=Long Lonely Day
TTITLE7=Shackles and Chains
TTITLE8=I Hope Tomorrow Never Comes
TTITLE9=When Someone You Love Dosn't Lovew You
TTITLE10=Ray's Roadhouse Tavern
TTITLE11=Conscience Keeper of My Heart
TTITLE12=Sedona Arizona
EXTD=
EXTT0=
EXTT1=
EXTT2=
EXTT3=
EXTT4=
EXTT5=
EXTT6=
EXTT7=
EXTT8=
EXTT9=
EXTT10=
EXTT11=
EXTT12=
PLAYORDER=
